<svg height="480pt" viewBox="-31 0 479 480" width="480pt" xmlns="http://www.w3.org/2000/svg"><path d="m344.5 168h-272c-35.347656 0-64 28.652344-64 64v160h400v-160c0-35.347656-28.652344-64-64-64zm-136 144c-22.089844 0-40-17.910156-40-40s17.910156-40 40-40 40 17.910156 40 40-17.910156 40-40 40zm0 0" fill="#9bc9ff"/><path d="m8.5 408c0 35.347656 28.652344 64 64 64h272c35.347656 0 64-28.652344 64-64v-16h-400zm0 0" fill="#9bc9ff"/><g fill="#1e81ce"><path d="m344.5 160v-56c-.066406-57.410156-46.589844-103.9335938-104-104h-64c-57.410156.0664062-103.933594 46.589844-104 104v56c-39.746094.042969-71.957031 32.253906-72 72v176c.042969 39.746094 32.253906 71.957031 72 72h272c39.746094-.042969 71.957031-32.253906 72-72v-176c-.042969-39.746094-32.253906-71.957031-72-72zm-256-56c.058594-48.578125 39.421875-87.941406 88-88h64c48.578125.058594 87.941406 39.421875 88 88v56h-16v-56c-.042969-39.746094-32.253906-71.957031-72-72h-64c-39.746094.042969-71.957031 32.253906-72 72v56h-16zm208 56h-176v-56c.039062-30.910156 25.089844-55.960938 56-56h64c30.910156.039062 55.960938 25.089844 56 56zm-224 16h272c30.910156.039062 55.960938 25.089844 56 56v152h-384v-152c.039062-30.910156 25.089844-55.960938 56-56zm328 232c-.039062 30.910156-25.089844 55.960938-56 56h-272c-30.910156-.039062-55.960938-25.089844-56-56v-8h384zm0 0"/><path d="m200.5 319.28125v40.71875c0 4.417969 3.582031 8 8 8s8-3.582031 8-8v-40.71875c24.605469-4.160156 41.917969-26.476562 39.832031-51.34375-2.085937-24.867188-22.878906-43.984375-47.832031-43.984375s-45.746094 19.117187-47.832031 43.984375c-2.085938 24.867188 15.226562 47.183594 39.832031 51.34375zm8-79.28125c17.671875 0 32 14.328125 32 32s-14.328125 32-32 32-32-14.328125-32-32 14.328125-32 32-32zm0 0"/></g></svg>